# xmcd CD database file
#
# Track frame offsets:
#	150
#	14265
#	26747
#	41486
#	50632
#	64572
#	77822
#	98149
#	113141
#	132016
#	140609
#	153348
#	169273
#
# Disc length: 2528 seconds
#
# Revision: 0
# Processed by: cddbd v1.5.1PL0 Copyright (c) Steve Scherf et al.
# Submitted via: CDex 1.51
#
DISCID=a709de0d
DTITLE=Jaymz Bee's Royal Jelly Orchestra - Seriously Happy
DYEAR=2004
DGENRE=Jazz
TTITLE0=WHEN YOUR SMILIN'
TTITLE1=I'VE GOT THE WORLD ON A STRING
TTITLE2=WHO WOULDENT CARE FOR YOU
TTITLE3=YOU MUST HAVE BEEN A BEAUTIFUL...
TTITLE4=GET HAPPY
TTITLE5=HOUSE PARTY
TTITLE6=SING SING SING
TTITLE7=AIN'T MISBEHAVIN'
TTITLE8=THIS IS MY LUCKY DAY
TTITLE9=LET'S DO IT
TTITLE10=SOMETHING'S GOTTA GIVE
TTITLE11=LAUGIN' IN RYTHEM
TTITLE12=LET THE GOOD TIMES ROLL
EXTD=YEAR: 2004
EXTT0=
EXTT1=
EXTT2=
EXTT3=
EXTT4=
EXTT5=
EXTT6=
EXTT7=
EXTT8=
EXTT9=
EXTT10=
EXTT11=
EXTT12=
PLAYORDER=
